Coordinates
version=1
nRows=7
nColumns=42
inDegrees=yes

Units are S.I. units (second, meters, Newtons, ...)
If the header above contains a line with 'inDegrees', this indicates whether rotational values are in degrees (yes) or radians (no).

endheader
time	pelvis_tilt	pelvis_list	pelvis_rotation	pelvis_tx	pelvis_ty	pelvis_tz	hip_flexion_r	hip_adduction_r	hip_rotation_r	knee_angle_r	knee_adduction_r	knee_angle_r_beta	ankle_angle_r	subtalar_angle_r	mtp_angle_r	hip_flexion_l	hip_adduction_l	hip_rotation_l	knee_angle_l	knee_adduction_l	knee_angle_l_beta	ankle_angle_l	subtalar_angle_l	mtp_angle_l	lumbar_extension	lumbar_bending	lumbar_rotation	arm_flex_r	arm_add_r	arm_rot_r	elbow_flex_r	pro_sup_r	wrist_flex_r	wrist_dev_r	arm_flex_l	arm_add_l	arm_rot_l	elbow_flex_l	pro_sup_l	wrist_flex_l	wrist_dev_l
      2.90000000	      8.82263742	      7.23634715	     20.74113014	      0.67051281	      0.90684008	      0.50846661	     -7.94679904	      0.19113916	    -21.26408093	     17.79701917	      3.45256172	      0.31061658	     19.46077026	     -1.59350747	     -7.52741732	     21.43624831	     -7.71322807	      2.52055800	     25.03477700	      4.97534851	      0.43693929	      6.85443344	      7.24356629	     -7.52741732	    -23.48138040	     -8.40222267	     -3.44667923	    -10.39936276	    -25.88733305	    -50.32951466	     62.08043181	     90.00000001	      0.00000000	      0.00000000	      3.57612366	    -21.24480138	     14.11203223	     83.68749429	     90.00000001	      0.00000000	      0.00000000
      2.91000000	      9.03818675	      7.26636152	     20.24305615	      0.67311337	      0.90668698	      0.50860441	     -8.22897444	      0.16460729	    -21.17929549	     18.01910416	      3.41534928	      0.31449270	     19.37482343	     -1.44990960	     -7.52711251	     22.04964906	     -7.45417215	      2.60561392	     25.15960937	      5.04927848	      0.43911802	      6.80397724	      7.33741693	     -7.52711251	    -23.43568728	     -8.50045716	     -2.92599644	    -10.06357783	    -26.01010516	    -50.00623176	     62.35770502	     90.00000001	      0.00000000	      0.00000000	      3.32510052	    -21.14319971	     14.12060231	     83.64369404	     90.00000001	      0.00000000	      0.00000000
      2.92000000	      9.55143440	      7.44549795	     19.76141977	      0.67596354	      0.90684565	      0.50855634	     -9.09886473	      0.10352253	    -21.01129012	     17.85934197	      3.51255058	      0.31170432	     19.85072038	     -1.12573677	     -7.52645881	     22.37917245	     -7.15393229	      2.36531684	     25.58836591	      5.03482806	      0.44660124	      6.92590281	      7.53225041	     -7.52645881	    -23.77721158	     -8.57094013	     -2.67583537	    -10.19141974	    -26.19305862	    -48.63451592	     63.73773855	     90.00000001	      0.00000000	      0.00000000	      2.77625924	    -21.07951941	     13.69624142	     84.00197121	     90.00000001	      0.00000000	      0.00000000
      2.93000000	      9.76782227	      7.47057991	     19.21971257	      0.67864699	      0.90665341	      0.50862152	     -9.35744096	      0.05827478	    -20.87213189	     18.12042386	      3.44277211	      0.31626106	     19.77426899	     -0.97067036	     -7.52613369	     22.93154439	     -6.88729914	      2.50933602	     25.78558309	      5.11121957	      0.45004332	      6.86441835	      7.63085969	     -7.52613369	    -23.72660252	     -8.65923600	     -2.16404177	     -9.86614997	    -26.24115744	    -48.27117274	     64.05335209	     90.00000001	      0.00000000	      0.00000000	      2.44708000	    -20.97996644	     13.71728298	     83.93444675	     90.00000001	      0.00000000	      0.00000000
      2.94000000	     10.18458443	      7.59983724	     18.69993536	      0.68145404	      0.90657030	      0.50865332	     -9.98429141	      0.01663223	    -20.65217935	     18.16166975	      3.42415645	      0.31698093	     20.27655537	     -0.79127411	     -7.52561839	     23.30652162	     -6.63013333	      2.55556698	     26.24694003	      5.29814331	      0.45809552	      6.94005174	      7.66384474	     -7.52561839	    -23.94174286	     -8.72688524	     -1.91543421	     -9.85513453	    -26.31242273	    -47.14915395	     65.39665047	     90.00000001	      0.00000000	      0.00000000	      1.89822099	    -20.99208296	     13.48285516	     84.17416525	     90.00000001	      0.00000000	      0.00000000
      2.95000000	     10.40617812	      7.58065030	     18.13294216	      0.68408871	      0.90629545	      0.50867994	    -10.20769348	     -0.01302664	    -20.46380914	     18.46191608	      3.37012436	      0.32222122	     20.20121556	     -0.62517836	     -7.52528596	     23.80322118	     -6.37089268	      2.76369819	     26.46797023	      5.32650605	      0.46195323	      6.86723360	      7.74294143	     -7.52528596	    -23.89812281	     -8.75828494	     -1.37544010	     -9.57718666	    -26.30803785	    -46.72820428	     65.74303690	     90.00000001	      0.00000000	      0.00000000	      1.50608505	    -20.84211639	     13.52314453	     84.11830403	     90.00000001	      0.00000000	      0.00000000
      2.96000000	     10.85846285	      7.60396173	     17.64502070	      0.68671677	      0.90610049	      0.50863273	    -10.83405485	      0.05195385	    -20.13657027	     18.48369320	      3.39109414	      0.32260130	     20.84041796	     -0.46166157	     -7.52472348	     24.09975247	     -6.18602920	      3.08726041	     26.87145379	      5.55932651	      0.46899534	      6.94843528	      7.61258897	     -7.52472348	    -24.16540437	     -8.65971887	     -1.14011899	     -9.81773217	    -26.46969845	    -45.24867496	     67.43367193	     90.00000001	      0.00000000	      0.00000000	      0.91349283	    -20.81307149	     13.26712751	     84.41821730	     90.00000001	      0.00000000	      0.00000000
